<svg width="240" height="240" viewBox="0 0 240 240" xmlns="http://www.w3.org/2000/svg" role="img" aria-labelledby="title desc">
  <title id="title">Cash App giving QR code</title>
  <desc id="desc">Stylized QR code guiding supporters to the Christ Commanded Church Cash App profile.</desc>
  <rect width="240" height="240" fill="#123a6f" rx="24"/>
  <g fill="#d1a32a">
    <rect x="20" y="20" width="60" height="60" rx="10"/>
    <rect x="160" y="20" width="60" height="60" rx="10"/>
    <rect x="20" y="160" width="60" height="60" rx="10"/>
    <rect x="92" y="28" width="24" height="24"/>
    <rect x="128" y="28" width="16" height="16"/>
    <rect x="92" y="64" width="48" height="20"/>
    <rect x="156" y="92" width="32" height="32"/>
    <rect x="116" y="92" width="28" height="28"/>
    <rect x="92" y="124" width="20" height="20"/>
    <rect x="140" y="136" width="48" height="24"/>
    <rect x="92" y="164" width="36" height="36"/>
    <rect x="140" y="180" width="28" height="28"/>
    <rect x="180" y="172" width="32" height="32"/>
    <rect x="68" y="196" width="20" height="20"/>
  </g>
  <g fill="#123a6f">
    <rect x="36" y="36" width="28" height="28" rx="4"/>
    <rect x="176" y="36" width="28" height="28" rx="4"/>
    <rect x="36" y="176" width="28" height="28" rx="4"/>
  </g>
</svg>
