<svg width="240" height="240" viewBox="0 0 240 240" xmlns="http://www.w3.org/2000/svg" role="img" aria-labelledby="title desc">
  <title id="title">Tithely giving QR code</title>
  <desc id="desc">Stylized QR code for directing supporters to the Tithely giving portal.</desc>
  <rect width="240" height="240" fill="#0b1d3c" rx="24"/>
  <g fill="#ffffff">
    <rect x="20" y="20" width="64" height="64" rx="8"/>
    <rect x="156" y="20" width="64" height="64" rx="8"/>
    <rect x="20" y="156" width="64" height="64" rx="8"/>
    <rect x="84" y="20" width="24" height="24"/>
    <rect x="132" y="20" width="16" height="16"/>
    <rect x="108" y="52" width="20" height="20"/>
    <rect x="84" y="84" width="40" height="40"/>
    <rect x="140" y="84" width="24" height="24"/>
    <rect x="172" y="100" width="32" height="16"/>
    <rect x="84" y="140" width="24" height="24"/>
    <rect x="116" y="132" width="32" height="32"/>
    <rect x="164" y="148" width="48" height="24"/>
    <rect x="108" y="188" width="28" height="28"/>
    <rect x="148" y="188" width="16" height="16"/>
    <rect x="180" y="196" width="20" height="20"/>
    <rect x="44" y="196" width="24" height="24"/>
  </g>
  <g fill="#0b1d3c">
    <rect x="36" y="36" width="32" height="32" rx="4"/>
    <rect x="172" y="36" width="32" height="32" rx="4"/>
    <rect x="36" y="172" width="32" height="32" rx="4"/>
  </g>
</svg>
