<svg xmlns="http://www.w3.org/2000/svg" viewBox="0 0 410 404"><defs><linearGradient id="a" x1="6.598" x2="235.014" y1="99.196" y2="286.904" gradientUnits="userSpaceOnUse"><stop stop-color="#41d1ff"/><stop offset="1" stop-color="#bd34fe"/></linearGradient><linearGradient id="b" x1="194.651" x2="236.076" y1="8.818" y2="292.989" gradientUnits="userSpaceOnUse"><stop stop-color="#ffea83"/><stop offset=".083" stop-color="#ffdd35"/><stop offset="1" stop-color="#ffa800"/></linearGradient></defs><path fill="url(#a)" d="m399.641 59.525-183.003 327.49c-3.846 6.887-13.865 6.937-17.778.091L9.242 59.556c-4.209-7.062 1.371-15.954 9.362-14.551l187.44 33.201a10 10 0 0 0 3.566-.001l180.75-33.14c7.965-1.461 13.569 7.45 9.39 14.5Z"/><path fill="url(#b)" d="M292.965 1.574 156.789 28.345a5 5 0 0 0-4.013 4.014l-19.326 138.91a5 5 0 0 0 5.743 5.64l38.581-5.402c3.534-.495 6.652 2.37 6.249 5.923l-11.449 100.986c-.43 3.795 3.92 6.156 6.724 3.61l24.513-22.073a5 5 0 0 1 8.451 3.91l-2.886 61.447c-.185 3.94 4.8 5.847 7.265 2.801l5.516-6.679 80.786-214.031c1.215-3.222-1.824-6.451-5.12-5.743l-39.4 8.399c-3.543.755-6.543-2.505-5.472-5.968l25.677-82.236c1.07-3.452-1.914-6.714-5.473-5.962Z"/></svg>
